<svg width="150" height="45" viewBox="0 0 150 45" fill="none" xmlns="http://www.w3.org/2000/svg">
<g clip-path="url(#clip0)">
<rect y="-6.10352e-05" width="300" height="90" fill="#0000FF"/>
<path d="M35.8033 43.5215L47.7077 41.4224C55.4938 40.0495 58.0418 35.6857 57.1681 30.7309C56.2491 25.5186 52.1463 23.3227 49.0879 23.663L49.0312 23.3412C51.7264 22.0698 53.9069 19.7612 53.1581 15.5142C52.3071 10.6881 48.3975 7.33016 41.5123 8.54422L29.9939 10.5752L35.8033 43.5215ZM39.1688 39.2789L37.1492 27.8249L45.257 26.3953C49.5684 25.6351 52.7816 28.0542 53.3716 31.4003C53.8822 34.296 52.2959 36.9642 47.0836 37.8833L39.1688 39.2789ZM36.5365 24.3501L34.6076 13.4109L42.1363 12.0834C46.512 11.3118 48.8509 13.288 49.3615 16.1836C49.9742 19.6584 47.54 22.4099 43.9365 23.0453L36.5365 24.3501ZM66.618 38.088L68.2867 28.1732L81.6068 25.8245L86.566 34.5707L90.7486 33.8332L72.8418 3.01997L68.7235 3.74614L62.4354 38.8255L66.618 38.088ZM68.9175 24.4128L71.573 8.61795L71.8304 8.57257L79.728 22.5066L68.9175 24.4128Z" fill="white"/>
<path d="M122.039 16.2369C123.219 9.36522 119.447 3.68117 113.123 1.37934C105.079 -1.54824 96.9893 2.53015 93.3689 12.477C89.7486 22.4239 93.3245 30.7484 101.368 33.6759C107.692 35.9778 114.235 34.0482 117.748 28.0257L113.942 26.6402C111.434 30.6644 106.839 31.6344 102.664 30.1147C96.9538 28.0364 94.0807 21.9841 97.0529 13.8179C100.025 5.65163 106.116 2.8622 111.827 4.94056C116.002 6.46022 118.898 10.1567 118.232 14.8513L122.039 16.2369ZM120.324 40.0888L124.131 41.4744L127.841 31.2819L133.38 28.2913L138.99 46.8825L143.595 48.5586L136.674 26.5003L155.037 17.1216L150.064 15.3115L130.265 25.7671L129.897 25.6331L135.573 10.0374L131.766 8.65179L120.324 40.0888Z" fill="white"/>
<path d="M15.7681 11.5859L-2.99156 20.3336L5.75619 39.0933L8.9805 37.5897L2.77951 24.3463L27.9844 33.5202L29.2135 30.1431L4.00864 20.9693L17.2827 14.7795L15.7681 11.5859Z" fill="white"/>
</g>
<defs>
<clipPath id="clip0">
<rect width="150" height="45" fill="white"/>
</clipPath>
</defs>
</svg>
