<svg width="150" height="45" viewBox="0 0 150 45" fill="none" xmlns="http://www.w3.org/2000/svg">
<g clip-path="url(#clip0)">
<rect y="-6.10352e-05" width="300" height="90" fill="#FFBF00"/>
<path d="M24.6975 17.1468C22.8594 6.72239 15.6004 1.30112 7.17075 2.78749C-1.25887 4.27386 -6.22597 11.8509 -4.38787 22.2753C-2.54976 32.6998 4.7093 38.121 13.1389 36.6347C21.5685 35.1483 26.5356 27.5712 24.6975 17.1468ZM20.8366 17.8276C22.3457 26.3859 18.4652 31.8473 12.4808 32.9025C6.49645 33.9577 0.98209 30.1529 -0.526972 21.5946C-2.03603 13.0363 1.84445 7.5749 7.82884 6.51969C13.8132 5.46448 19.3276 9.26927 20.8366 17.8276ZM34.3105 32.4371L38.3001 31.7336L36.1783 19.7005L43.3853 18.4297C51.0589 17.0767 53.695 11.8016 52.6681 5.97804C51.6413 0.154523 47.3713 -3.83651 39.6334 -2.47211L28.5012 -0.509199L34.3105 32.4371ZM35.5543 16.1614L33.1148 2.32648L40.1288 1.08973C45.4858 0.14515 48.0451 2.71275 48.7429 6.67017C49.4407 10.6276 47.9252 13.98 42.6326 14.9133L35.5543 16.1614Z" fill="white"/>
<path d="M54.0632 36.1413L73.818 41.4346L74.7482 37.9633L58.9064 33.7185L61.849 22.7366L76.4285 26.6431L77.3586 23.1718L62.7792 19.2653L65.7049 8.34646L81.2941 12.5236L82.2243 9.0523L62.7219 3.82665L54.0632 36.1413ZM114.902 17.8082L111.052 16.7766L104.236 42.2117L103.921 42.1272L93.0642 11.9568L89.2773 10.9422L80.6186 43.2568L84.5317 44.3053L91.3301 18.9333L91.6457 19.0178L102.456 49.1081L106.243 50.1228L114.902 17.8082Z" fill="white"/>
<path d="M141.17 36.1588L153.042 19.2033L136.087 7.33084L134.046 10.2451L146.038 18.6137L119.623 23.2714L120.247 26.8105L146.662 22.1529L138.261 34.1505L141.17 36.1588Z" fill="white"/>
</g>
<defs>
<clipPath id="clip0">
<rect width="150" height="45" fill="white"/>
</clipPath>
</defs>
</svg>
